name Run_200 02_newCOP3_v24.mot
datacolumns 19
datarows 64
range 3.15 3.1815
DataType=double
version=3
OpenSimVersion=4.3-2021-08-27-4bc7ad9
endheader
time	R_ground_force_vx	R_ground_force_vy	R_ground_force_vz	R_ground_force_px	R_ground_force_py	R_ground_force_pz	L_ground_force_vx	L_ground_force_vy	L_ground_force_vz	L_ground_force_px	L_ground_force_py	L_ground_force_pz	R_ground_torque_x	R_ground_torque_y	R_ground_torque_z	L_ground_torque_x	L_ground_torque_y	L_ground_torque_z
3.15	0	0	0	0	0	0	44.221989	145.212387	-12.396923	0.838936	0	-0.321011	0	0	0	-0	1.360043	-0
3.1505	0	0	0	0	0	0	43.858562	142.945755	-12.23947	0.838176	0	-0.321049	0	0	0	-0	1.348783	-0
3.151	0	0	0	0	0	0	43.495152	140.702133	-12.082638	0.837412	0	-0.321088	0	0	0	-0	1.337928	-0
3.1515	0	0	0	0	0	0	43.131535	138.48175	-11.926355	0.836645	0	-0.321131	0	0	0	-0	1.327473	-0
3.152	0	0	0	0	0	0	42.767471	136.284805	-11.770543	0.835874	0	-0.321175	0	0	0	-0	1.317409	-0
3.1525	0	0	0	0	0	0	42.402725	134.111557	-11.615118	0.8351	0	-0.321221	0	0	0	-0	1.307729	-0
3.153	0	0	0	0	0	0	42.037056	131.962219	-11.459993	0.834324	0	-0.321268	0	0	0	-0	1.298426	-0
3.1535	0	0	0	0	0	0	41.670216	129.837021	-11.305082	0.833545	0	-0.321316	0	0	0	-0	1.289491	-0
3.154	0	0	0	0	0	0	41.301968	127.736191	-11.150293	0.8327639999999999	0	-0.321364	0	0	0	-0	1.280919	-0
3.1545	0	0	0	0	0	0	40.932072	125.659958	-10.995538	0.831982	0	-0.321413	0	0	0	-0	1.2727	-0
3.155	0	0	0	0	0	0	40.560291	123.608551	-10.840726	0.831199	0	-0.321461	0	0	0	-0	1.264827	-0
3.1555	0	0	0	0	0	0	40.186394	121.582169	-10.685769	0.830415	0	-0.321508	0	0	0	-0	1.257293	-0
3.156	0	0	0	0	0	0	39.810158	119.581017	-10.530582	0.829632	0	-0.321553	0	0	0	-0	1.250091	-0
3.1565	0	0	0	0	0	0	39.431374	117.605301	-10.375084	0.8288489999999999	0	-0.321597	0	0	0	-0	1.243213	-0
3.157	0	0	0	0	0	0	39.049835	115.65519	-10.219194	0.828068	0	-0.321638	0	0	0	-0	1.23665	-0
3.1575	0	0	0	0	0	0	38.665352	113.73085	-10.062843	0.82729	0	-0.321676	0	0	0	-0	1.230397	-0
3.158	0	0	0	0	0	0	38.277748	111.832443	-9.905962000000001	0.826515	0	-0.321711	0	0	0	-0	1.224445	-0
3.1585	0	0	0	0	0	0	37.88686	109.960106	-9.74849	0.825743	0	-0.321741	0	0	0	-0	1.218787	-0
3.159	0	0	0	0	0	0	37.492542	108.113953	-9.590375999999999	0.824977	0	-0.321767	0	0	0	-0	1.213416	-0
3.1595	0	0	0	0	0	0	37.094669	106.294075	-9.431573	0.8242159999999999	0	-0.321787	0	0	0	-0	1.208324	-0
3.16	0	0	0	0	0	0	36.693123	104.500565	-9.272045	0.823462	0	-0.321802	0	0	0	-0	1.203503	-0
3.1605	0	0	0	0	0	0	36.287815	102.733467	-9.111764000000001	0.822715	0	-0.321811	0	0	0	-0	1.198948	-0
3.161	0	0	0	0	0	0	35.878662	100.992836	-8.950711999999999	0.821977	0	-0.321813	0	0	0	-0	1.194649	-0
3.1615	0	0	0	0	0	0	35.465611	99.27866400000001	-8.788879	0.821249	0	-0.321808	0	0	0	-0	1.190601	-0
3.162	0	0	0	0	0	0	35.048618	97.590958	-8.626267	0.820531	0	-0.321795	0	0	0	-0	1.186796	-0
3.1625	0	0	0	0	0	0	34.627663	95.929672	-8.462888	0.819824	0	-0.321774	0	0	0	-0	1.183226	-0
3.163	0	0	0	0	0	0	34.202732	94.294769	-8.29876	0.819129	0	-0.321744	0	0	0	-0	1.179886	-0
3.1635	0	0	0	0	0	0	33.773834	92.686172	-8.133918	0.818448	0	-0.321706	0	0	0	-0	1.176767	-0
3.164	0	0	0	0	0	0	33.340996	91.103775	-7.968401	0.817781	0	-0.321658	0	0	0	-0	1.173863	-0
3.1645	0	0	0	0	0	0	32.904243	89.547455	-7.802263	0.817128	0	-0.3216	0	0	0	-0	1.171166	-0
3.165	0	0	0	0	0	0	32.463631	88.01709	-7.635563	0.816491	0	-0.321532	0	0	0	-0	1.168671	-0
3.1655	0	0	0	0	0	0	32.019207	86.512512	-7.468373	0.815871	0	-0.321455	0	0	0	-0	1.16637	-0
3.166	0	0	0	0	0	0	31.571043	85.033554	-7.300772	0.815268	0	-0.321366	0	0	0	-0	1.164255	-0
3.1665	0	0	0	0	0	0	31.119204	83.58002500000001	-7.132848	0.814684	0	-0.321267	0	0	0	-0	1.162322	-0
3.167	0	0	0	0	0	0	30.663767	82.15171100000001	-6.9647	0.814118	0	-0.321157	0	0	0	-0	1.160562	-0
3.1675	0	0	0	0	0	0	30.204809	80.74840500000001	-6.796429	0.813572	0	-0.321036	0	0	0	-0	1.158969	-0
3.168	0	0	0	0	0	0	29.742413	79.36988100000001	-6.628148	0.813046	0	-0.320903	0	0	0	-0	1.157536	-0
3.1685	0	0	0	0	0	0	29.276655	78.0159	-6.459972	0.812541	0	-0.32076	0	0	0	-0	1.156257	-0
3.169	0	0	0	0	0	0	28.807617	76.686226	-6.292027	0.812059	0	-0.320605	0	0	0	-0	1.155126	-0
3.1695	0	0	0	0	0	0	28.335369	75.380608	-6.124438	0.811598	0	-0.32044	0	0	0	-0	1.154134	-0
3.17	0	0	0	0	0	0	27.859982	74.098816	-5.957337	0.811161	0	-0.320263	0	0	0	-0	1.153277	-0
3.1705	0	0	0	0	0	0	27.381517	72.84058400000001	-5.79086	0.810748	0	-0.320076	0	0	0	-0	1.152548	-0
3.171	0	0	0	0	0	0	26.900034	71.60569	-5.625142	0.8103590000000001	0	-0.319877	0	0	0	-0	1.151939	-0
3.1715	0	0	0	0	0	0	26.415577	70.39389799999999	-5.460322	0.809996	0	-0.319669	0	0	0	-0	1.151445	-0
3.172	0	0	0	0	0	0	25.928183	69.20497899999999	-5.29654	0.809659	0	-0.31945	0	0	0	-0	1.151059	-0
3.1725	0	0	0	0	0	0	25.43788	68.03872699999999	-5.133934	0.80935	0	-0.319221	0	0	0	-0	1.150774	-0
3.173	0	0	0	0	0	0	24.944685	66.894943	-4.972641	0.809069	0	-0.318982	0	0	0	-0	1.150585	-0
3.1735	0	0	0	0	0	0	24.448603	65.773445	-4.812797	0.808818	0	-0.318734	0	0	0	-0	1.150484	-0
3.174	0	0	0	0	0	0	23.949625	64.674065	-4.654535	0.808598	0	-0.318476	0	0	0	-0	1.150466	-0
3.1745	0	0	0	0	0	0	23.447733	63.596676	-4.497984	0.80841	0	-0.31821	0	0	0	-0	1.150524	-0
3.175	0	0	0	0	0	0	22.942892	62.541149	-4.343268	0.808256	0	-0.317936	0	0	0	-0	1.150651	-0
3.1755	0	0	0	0	0	0	22.435061	61.507397	-4.190508	0.808138	0	-0.317653	0	0	0	-0	1.150841	-0
3.176	0	0	0	0	0	0	21.924175	60.495358	-4.039816	0.808059	0	-0.317362	0	0	0	-0	1.151088	-0
3.1765	0	0	0	0	0	0	21.410168	59.504997	-3.8913	0.808019	0	-0.317065	0	0	0	-0	1.151385	-0
3.177	0	0	0	0	0	0	20.89295	58.536316	-3.745061	0.808023	0	-0.31676	0	0	0	-0	1.151726	-0
3.1775	0	0	0	0	0	0	20.372423	57.58934	-3.601189	0.808072	0	-0.316448	0	0	0	-0	1.152104	-0
3.178	0	0	0	0	0	0	19.848476	56.664139	-3.459771	0.808171	0	-0.316129	0	0	0	-0	1.152514	-0
3.1785	0	0	0	0	0	0	19.320982	55.760815	-3.32088	0.808323	0	-0.315804	0	0	0	-0	1.152947	-0
3.179	0	0	0	0	0	0	18.789799	54.879509	-3.184584	0.808532	0	-0.315473	0	0	0	-0	1.153399	-0
3.1795	0	0	0	0	0	0	18.254776	54.02039	-3.050941	0.808803	0	-0.315135	0	0	0	-0	1.153862	-0
3.18	0	0	0	0	0	0	17.715744	53.183681	-2.919997	0.80914	0	-0.314792	0	0	0	-0	1.15433	-0
3.1805	0	0	0	0	0	0	17.172523	52.369637	-2.791791	0.809549	0	-0.314442	0	0	0	-0	1.154797	-0
3.181	0	0	0	0	0	0	16.624918	51.578552	-2.666352	0.810037	0	-0.314087	0	0	0	-0	1.155256	-0
3.1815	0	0	0	0	0	0	16.07272	50.810764	-2.543698	0.810609	0	-0.313725	0	0	0	-0	1.1557	-0
